<?xml version="1.0" standalone="yes"?>

<svg version="1.1" viewBox="0.0 0.0 1042.4540682414697 319.1417322834646" fill="none" stroke="none" stroke-linecap="square" stroke-miterlimit="10" xmlns="http://www.w3.org/2000/svg" xmlns:xlink="http://www.w3.org/1999/xlink"><clipPath id="p.0"><path d="m0 0l1042.4541 0l0 319.14172l-1042.4541 0l0 -319.14172z" clip-rule="nonzero"></path></clipPath><g clip-path="url(#p.0)"><path fill="#000000" fill-opacity="0.0" d="m0 0l1042.4541 0l0 319.14172l-1042.4541 0z" fill-rule="evenodd"></path><path fill="#000000" fill-opacity="0.0" d="m187.73491 69.56956l702.3307 0l0 38.645668l-702.3307 0z" fill-rule="evenodd"></path><path fill="#fafafa" d="m200.32866 155.36955l0 -4.0l27.609375 -42.875l-25.125 0l0 -5.609375l33.4375 0l0 3.921875l-27.671875 42.875l27.921875 0l0 5.6875l-36.171875 0zm61.8387 0.953125q-3.90625 0 -7.3124847 -1.390625q-3.40625 -1.40625 -5.921875 -4.0q-2.515625 -2.609375 -3.953125 -6.359375q-1.4375 -3.765625 -1.4375 -8.5625q0 -4.796875 1.46875 -8.59375q1.484375 -3.8125 3.921875 -6.453125q2.4375 -2.640625 5.5625 -4.03125q3.1249847 -1.40625 6.4843597 -1.40625q3.671875 0 6.59375 1.28125q2.921875 1.28125 4.875 3.6875q1.96875 2.390625 3.0 5.75q1.046875 3.359375 1.046875 7.53125q0 1.03125 -0.046875 2.03125q-0.03125 1.0 -0.1875 1.71875l-26.249985 0q0.40625 6.25 3.875 9.890625q3.4843597 3.640625 9.093735 3.640625q2.796875 0 5.15625 -0.84375q2.359375 -0.84375 4.515625 -2.203125l2.328125 4.3125q-2.5625 1.609375 -5.6875 2.8125q-3.125 1.1875 -7.125 1.1875zm-12.23436 -23.515625l20.79686 0q0 -5.921875 -2.515625 -9.0q-2.515625 -3.078125 -7.078125 -3.078125q-2.078125 0 -3.96875 0.796875q-1.8749847 0.796875 -3.3906097 2.359375q-1.515625 1.5625 -2.515625 3.8125q-1.0 2.234375 -1.328125 5.109375zm36.16432 22.5625l0 -38.875l5.4375 0l0.5625 5.59375l0.234375 0q2.796875 -2.796875 5.875 -4.671875q3.09375 -1.890625 7.171875 -1.890625q6.15625 0 9.0 3.84375q2.84375 3.84375 2.84375 11.359375l0 24.640625l-6.5625 0l0 -23.765625q0 -5.515625 -1.765625 -7.953125q-1.765625 -2.4375 -5.59375 -2.4375q-3.046875 0 -5.375 1.515625q-2.3125 1.515625 -5.265625 4.484375l0 28.15625l-6.5625 0zm68.88495 0l0 -20.3125l-15.765625 -32.171875l7.125 0l6.796875 14.796875q1.28125 2.890625 2.46875 5.6875q1.203125 2.796875 2.5625 5.765625l0.328125 0q1.359375 -2.96875 2.71875 -5.765625q1.359375 -2.796875 2.5625 -5.6875l6.71875 -14.796875l6.953125 0l-15.75 32.171875l0 20.3125l-6.71875 0zm37.90811 0.953125q-4.875 0 -8.125 -2.875q-3.234375 -2.875 -3.234375 -8.15625q0 -6.40625 5.671875 -9.796875q5.6875 -3.40625 18.171875 -4.765625q0 -1.84375 -0.359375 -3.59375q-0.359375 -1.765625 -1.25 -3.125q-0.875 -1.359375 -2.4375 -2.203125q-1.546875 -0.84375 -3.953125 -0.84375q-3.359375 0 -6.328125 1.28125q-2.953125 1.28125 -5.265625 2.890625l-2.5625 -4.5625q2.71875 -1.765625 6.640625 -3.40625q3.921875 -1.640625 8.640625 -1.640625q7.109375 0 10.3125 4.359375q3.203125 4.359375 3.203125 11.640625l0 23.84375l-5.4375 0l-0.5625 -4.640625l-0.234375 0q-2.8125 2.328125 -6.015625 3.96875q-3.1875 1.625 -6.875 1.625zm1.921875 -5.265625q2.796875 0 5.28125 -1.3125q2.484375 -1.328125 5.28125 -3.890625l0 -10.796875q-4.875 0.625 -8.203125 1.515625q-3.3125 0.875 -5.359375 2.078125q-2.03125 1.203125 -2.953125 2.765625q-0.921875 1.546875 -0.921875 3.390625q0 3.359375 2.0 4.8125q2.0 1.4375 4.875 1.4375zm29.444946 4.3125l0 -38.875l5.4375 0l0.5625 5.59375l0.234375 0q2.5625 -2.796875 5.5625 -4.671875q3.0 -1.890625 6.515625 -1.890625q4.484375 0 7.0 1.96875q2.53125 1.953125 3.71875 5.46875q3.046875 -3.359375 6.125 -5.390625q3.078125 -2.046875 6.6875 -2.046875q6.0 0 8.90625 3.84375q2.921875 3.84375 2.921875 11.359375l0 24.640625l-6.546875 0l0 -23.765625q0 -5.515625 -1.765625 -7.953125q-1.765625 -2.4375 -5.4375 -2.4375q-4.40625 0 -9.765625 6.0l0 28.15625l-6.5625 0l0 -23.765625q0 -5.515625 -1.765625 -7.953125q-1.75 -2.4375 -5.515625 -2.4375q-4.390625 0 -9.75 6.0l0 28.15625l-6.5625 0zm75.27304 0.953125q-4.875 0 -8.125 -2.875q-3.234375 -2.875 -3.234375 -8.15625q0 -6.40625 5.671875 -9.796875q5.6875 -3.40625 18.171906 -4.765625q0 -1.84375 -0.35940552 -3.59375q-0.359375 -1.765625 -1.25 -3.125q-0.875 -1.359375 -2.4375 -2.203125q-1.546875 -0.84375 -3.953125 -0.84375q-3.359375 0 -6.328125 1.28125q-2.953125 1.28125 -5.265625 2.890625l-2.5625 -4.5625q2.71875 -1.765625 6.640625 -3.40625q3.921875 -1.640625 8.640625 -1.640625q7.1094055 0 10.3125305 4.359375q3.203125 4.359375 3.203125 11.640625l0 23.84375l-5.4375 0l-0.5625 -4.640625l-0.234375 0q-2.8125305 2.328125 -6.0156555 3.96875q-3.1875 1.625 -6.875 1.625zm1.921875 -5.265625q2.796875 0 5.28125 -1.3125q2.484375 -1.328125 5.2812805 -3.890625l0 -10.796875q-4.8750305 0.625 -8.2031555 1.515625q-3.3125 0.875 -5.359375 2.078125q-2.03125 1.203125 -2.953125 2.765625q-0.921875 1.546875 -0.921875 3.390625q0 3.359375 2.0 4.8125q2.0 1.4375 4.875 1.4375zm46.0856 4.3125l0 -52.484375l8.0 0l10.078125 28.0q0.953125 2.71875 1.875 5.484375q0.921875 2.765625 1.890625 5.484375l0.3125 0q0.953125 -2.71875 1.796875 -5.484375q0.84375 -2.765625 1.796875 -5.484375l9.921875 -28.0l8.078125 0l0 52.484375l-6.234375 0l0 -28.875q0 -3.53125 0.3125 -7.765625q0.328125 -4.234375 0.5625 -7.765625l-0.3125 0l-4.15625 11.921875l-9.921875 27.203125l-4.40625 0l-9.921875 -27.203125l-4.15625 -11.921875l-0.3125 0q0.234375 3.53125 0.515625 7.765625q0.28125 4.234375 0.28125 7.765625l0 28.875l-6.0 0zm66.47241 0.953125q-4.875 0 -8.125 -2.875q-3.234375 -2.875 -3.234375 -8.15625q0 -6.40625 5.671875 -9.796875q5.6875 -3.40625 18.171875 -4.765625q0 -1.84375 -0.359375 -3.59375q-0.359375 -1.765625 -1.25 -3.125q-0.875 -1.359375 -2.4375 -2.203125q-1.546875 -0.84375 -3.953125 -0.84375q-3.359375 0 -6.328125 1.28125q-2.953125 1.28125 -5.265625 2.890625l-2.5625 -4.5625q2.71875 -1.765625 6.640625 -3.40625q3.921875 -1.640625 8.640625 -1.640625q7.109375 0 10.3125 4.359375q3.203125 4.359375 3.203125 11.640625l0 23.84375l-5.4375 0l-0.5625 -4.640625l-0.234375 0q-2.8125 2.328125 -6.015625 3.96875q-3.1875 1.625 -6.875 1.625zm1.921875 -5.265625q2.796875 0 5.28125 -1.3125q2.484375 -1.328125 5.28125 -3.890625l0 -10.796875q-4.875 0.625 -8.203125 1.515625q-3.3125 0.875 -5.359375 2.078125q-2.03125 1.203125 -2.953125 2.765625q-0.921875 1.546875 -0.921875 3.390625q0 3.359375 2.0 4.8125q2.0 1.4375 4.875 1.4375zm29.445007 4.3125l0 -38.875l5.4375 0l0.5625 5.59375l0.234375 0q2.5625 -2.796875 5.5625 -4.671875q3.0 -1.890625 6.515625 -1.890625q4.484375 0 7.0 1.96875q2.53125 1.953125 3.71875 5.46875q3.046875 -3.359375 6.125 -5.390625q3.078125 -2.046875 6.6875 -2.046875q6.0 0 8.90625 3.84375q2.921875 3.84375 2.921875 11.359375l0 24.640625l-6.546875 0l0 -23.765625q0 -5.515625 -1.765625 -7.953125q-1.765625 -2.4375 -5.4375 -2.4375q-4.40625 0 -9.765625 6.0l0 28.15625l-6.5625 0l0 -23.765625q0 -5.515625 -1.765625 -7.953125q-1.75 -2.4375 -5.515625 -2.4375q-4.390625 0 -9.75 6.0l0 28.15625l-6.5625 0zm75.27307 0.953125q-4.875 0 -8.125 -2.875q-3.234375 -2.875 -3.234375 -8.15625q0 -6.40625 5.671875 -9.796875q5.6875 -3.40625 18.171875 -4.765625q0 -1.84375 -0.359375 -3.59375q-0.359375 -1.765625 -1.25 -3.125q-0.875 -1.359375 -2.4375 -2.203125q-1.546875 -0.84375 -3.953125 -0.84375q-3.359375 0 -6.328125 1.28125q-2.953125 1.28125 -5.265625 2.890625l-2.5625 -4.5625q2.71875 -1.765625 6.640625 -3.40625q3.921875 -1.640625 8.640625 -1.640625q7.109375 0 10.3125 4.359375q3.203125 4.359375 3.203125 11.640625l0 23.84375l-5.4375 0l-0.5625 -4.640625l-0.234375 0q-2.8125 2.328125 -6.015625 3.96875q-3.1875 1.625 -6.875 1.625zm1.921875 -5.265625q2.796875 0 5.28125 -1.3125q2.484375 -1.328125 5.28125 -3.890625l0 -10.796875q-4.875 0.625 -8.203125 1.515625q-3.3125 0.875 -5.359375 2.078125q-2.03125 1.203125 -2.953125 2.765625q-0.921875 1.546875 -0.921875 3.390625q0 3.359375 2.0 4.8125q2.0 1.4375 4.875 1.4375z" fill-rule="nonzero"></path><path fill="#000000" fill-opacity="0.0" d="m235.21523 168.95538l607.3701 0l0 64.06299l-607.3701 0z" fill-rule="evenodd"></path><path fill="#fff0a5" d="m349.87082 208.67538l0 -20.984375l6.5625 0q1.609375 0 2.96875 0.296875q1.359375 0.296875 2.328125 1.015625q0.984375 0.703125 1.515625 1.828125q0.546875 1.109375 0.546875 2.734375q0 2.46875 -1.28125 3.9375q-1.28125 1.46875 -3.453125 2.015625l5.34375 9.15625l-3.0 0l-5.0625 -8.859375l-3.8125 0l0 8.859375l-2.65625 0zm2.65625 -11.046875l3.53125 0q2.453125 0 3.765625 -1.0q1.3125 -1.015625 1.3125 -3.0625q0 -2.078125 -1.3125 -2.90625q-1.3125 -0.828125 -3.765625 -0.828125l-3.53125 0l0 7.796875zm27.998688 11.4375q-1.5625 0 -2.921875 -0.5625q-1.359375 -0.5625 -2.375 -1.59375q-1.0 -1.046875 -1.578125 -2.546875q-0.578125 -1.515625 -0.578125 -3.4375q0 -1.90625 0.59375 -3.421875q0.59375 -1.53125 1.5625 -2.578125q0.984375 -1.0625 2.234375 -1.625q1.25 -0.5625 2.59375 -0.5625q1.46875 0 2.625 0.515625q1.171875 0.515625 1.953125 1.484375q0.796875 0.953125 1.203125 2.296875q0.421875 1.34375 0.421875 3.0q0 0.421875 -0.015625 0.828125q-0.015625 0.390625 -0.078125 0.671875l-10.5 0q0.15625 2.5 1.546875 3.953125q1.40625 1.453125 3.640625 1.453125q1.125 0 2.0625 -0.328125q0.9375 -0.34375 1.8125 -0.875l0.921875 1.71875q-1.015625 0.640625 -2.265625 1.125q-1.25 0.484375 -2.859375 0.484375zm-4.890625 -9.421875l8.328125 0q0 -2.359375 -1.015625 -3.59375q-1.0 -1.234375 -2.828125 -1.234375q-0.828125 0 -1.59375 0.328125q-0.75 0.3125 -1.359375 0.9375q-0.609375 0.625 -1.015625 1.53125q-0.390625 0.890625 -0.515625 2.03125zm20.865784 9.03125l0 -15.546875l2.171875 0l0.234375 2.234375l0.09375 0q1.109375 -1.125 2.34375 -1.875q1.234375 -0.75 2.875 -0.75q2.453125 0 3.59375 1.546875q1.140625 1.53125 1.140625 4.53125l0 9.859375l-2.625 0l0 -9.5q0 -2.21875 -0.703125 -3.1875q-0.703125 -0.96875 -2.25 -0.96875q-1.21875 0 -2.140625 0.609375q-0.921875 0.59375 -2.109375 1.78125l0 11.265625l-2.625 0zm30.200928 0.390625q-1.5625 0 -2.921875 -0.5625q-1.359375 -0.5625 -2.375 -1.59375q-1.0 -1.046875 -1.578125 -2.546875q-0.578125 -1.515625 -0.578125 -3.4375q0 -1.90625 0.59375 -3.421875q0.59375 -1.53125 1.5625 -2.578125q0.984375 -1.0625 2.234375 -1.625q1.25 -0.5625 2.59375 -0.5625q1.46875 0 2.625 0.515625q1.171875 0.515625 1.953125 1.484375q0.796875 0.953125 1.203125 2.296875q0.421875 1.34375 0.421875 3.0q0 0.421875 -0.015625 0.828125q-0.015625 0.390625 -0.078125 0.671875l-10.5 0q0.15625 2.5 1.546875 3.953125q1.40625 1.453125 3.640625 1.453125q1.125 0 2.0625 -0.328125q0.9375 -0.34375 1.8125 -0.875l0.921875 1.71875q-1.015625 0.640625 -2.265625 1.125q-1.25 0.484375 -2.859375 0.484375zm-4.890625 -9.421875l8.328125 0q0 -2.359375 -1.015625 -3.59375q-1.0 -1.234375 -2.828125 -1.234375q-0.828125 0 -1.59375 0.328125q-0.75 0.3125 -1.359375 0.9375q-0.609375 0.625 -1.015625 1.53125q-0.390625 0.890625 -0.515625 2.03125zm27.162659 9.421875q-1.5625 0 -2.921875 -0.5625q-1.359375 -0.5625 -2.375 -1.59375q-1.0 -1.046875 -1.578125 -2.546875q-0.578125 -1.515625 -0.578125 -3.4375q0 -1.90625 0.59375 -3.421875q0.59375 -1.53125 1.5625 -2.578125q0.984375 -1.0625 2.234375 -1.625q1.25 -0.5625 2.59375 -0.5625q1.46875 0 2.625 0.515625q1.171875 0.515625 1.953125 1.484375q0.796875 0.953125 1.203125 2.296875q0.421875 1.34375 0.421875 3.0q0 0.421875 -0.015625 0.828125q-0.015625 0.390625 -0.078125 0.671875l-10.5 0q0.15625 2.5 1.546875 3.953125q1.40625 1.453125 3.640625 1.453125q1.125 0 2.0625 -0.328125q0.9375 -0.34375 1.8125 -0.875l0.921875 1.71875q-1.015625 0.640625 -2.265625 1.125q-1.25 0.484375 -2.859375 0.484375zm-4.890625 -9.421875l8.328125 0q0 -2.359375 -1.015625 -3.59375q-1.0 -1.234375 -2.828125 -1.234375q-0.828125 0 -1.59375 0.328125q-0.75 0.3125 -1.359375 0.9375q-0.609375 0.625 -1.015625 1.53125q-0.390625 0.890625 -0.515625 2.03125zm33.915833 9.03125l0 -20.984375l6.5625 0q1.609375 0 2.96875 0.296875q1.359375 0.296875 2.328125 1.015625q0.984375 0.703125 1.515625 1.828125q0.546875 1.109375 0.546875 2.734375q0 2.46875 -1.28125 3.9375q-1.28125 1.46875 -3.453125 2.015625l5.34375 9.15625l-3.0 0l-5.0625 -8.859375l-3.8125 0l0 8.859375l-2.65625 0zm2.65625 -11.046875l3.53125 0q2.453125 0 3.765625 -1.0q1.3125 -1.015625 1.3125 -3.0625q0 -2.078125 -1.3125 -2.90625q-1.3125 -0.828125 -3.765625 -0.828125l-3.53125 0l0 7.796875zm26.248657 11.4375q-2.5 0 -3.640625 -1.53125q-1.125 -1.546875 -1.125 -4.5625l0 -9.84375l2.65625 0l0 9.5q0 2.203125 0.6875 3.1875q0.6875 0.96875 2.21875 0.96875q1.21875 0 2.140625 -0.625q0.9375 -0.625 2.046875 -2.0l0 -11.03125l2.625 0l0 15.546875l-2.171875 0l-0.21875 -2.4375l-0.109375 0q-1.078125 1.28125 -2.28125 2.0625q-1.203125 0.765625 -2.828125 0.765625zm24.57367 0q-2.953125 0 -4.703125 -2.109375q-1.734375 -2.125 -1.734375 -6.03125q0 -1.875 0.5625 -3.390625q0.5625 -1.53125 1.484375 -2.578125q0.9375 -1.0625 2.140625 -1.640625q1.21875 -0.578125 2.5625 -0.578125q1.34375 0 2.328125 0.484375q1.0 0.484375 2.03125 1.3125l-0.125 -2.65625l0 -5.984375l2.65625 0l0 22.78125l-2.1875 0l-0.21875 -1.828125l-0.09375 0q-0.921875 0.90625 -2.125 1.5625q-1.203125 0.65625 -2.578125 0.65625zm0.578125 -2.21875q1.078125 0 2.03125 -0.515625q0.96875 -0.53125 1.9375 -1.625l0 -8.125q-1.0 -0.890625 -1.921875 -1.265625q-0.90625 -0.375 -1.859375 -0.375q-0.921875 0 -1.75 0.4375q-0.8125 0.4375 -1.421875 1.21875q-0.609375 0.78125 -0.96875 1.875q-0.34375 1.078125 -0.34375 2.421875q0 2.828125 1.125 4.390625q1.125 1.5625 3.171875 1.5625zm24.316284 2.21875q-1.4375 0 -2.734375 -0.546875q-1.296875 -0.546875 -2.296875 -1.578125q-0.984375 -1.046875 -1.578125 -2.5625q-0.59375 -1.53125 -0.59375 -3.453125q0 -1.953125 0.59375 -3.46875q0.59375 -1.515625 1.578125 -2.5625q1.0 -1.0625 2.296875 -1.609375q1.296875 -0.546875 2.734375 -0.546875q1.4375 0 2.734375 0.546875q1.296875 0.546875 2.28125 1.609375q1.0 1.046875 1.59375 2.5625q0.59375 1.515625 0.59375 3.46875q0 1.921875 -0.59375 3.453125q-0.59375 1.515625 -1.59375 2.5625q-0.984375 1.03125 -2.28125 1.578125q-1.296875 0.546875 -2.734375 0.546875zm0 -2.1875q0.984375 0 1.8125 -0.421875q0.84375 -0.4375 1.4375 -1.21875q0.59375 -0.78125 0.90625 -1.875q0.328125 -1.09375 0.328125 -2.4375q0 -1.34375 -0.328125 -2.4375q-0.3125 -1.109375 -0.90625 -1.90625q-0.59375 -0.796875 -1.4375 -1.234375q-0.828125 -0.4375 -1.8125 -0.4375q-0.984375 0 -1.828125 0.4375q-0.828125 0.4375 -1.421875 1.234375q-0.59375 0.796875 -0.921875 1.90625q-0.3125 1.09375 -0.3125 2.4375q0 1.34375 0.3125 2.4375q0.328125 1.09375 0.921875 1.875q0.59375 0.78125 1.421875 1.21875q0.84375 0.421875 1.828125 0.421875zm20.478455 2.1875q-1.5 0 -2.140625 -0.890625q-0.640625 -0.90625 -0.640625 -2.640625l0 -19.640625l2.625 0l0 19.84375q0 0.640625 0.21875 0.890625q0.234375 0.25 0.515625 0.25q0.125 0 0.234375 0q0.125 0 0.34375 -0.0625l0.34375 1.984375q-0.25 0.125 -0.609375 0.1875q-0.34375 0.078125 -0.890625 0.078125zm11.778748 6.171875l0 -22.109375l2.171875 0l0.234375 1.78125l0.09375 0q1.046875 -0.890625 2.3125 -1.53125q1.265625 -0.640625 2.640625 -0.640625q1.5 0 2.65625 0.5625q1.15625 0.5625 1.921875 1.609375q0.765625 1.03125 1.15625 2.484375q0.40625 1.453125 0.40625 3.28125q0 1.984375 -0.546875 3.546875q-0.53125 1.546875 -1.46875 2.640625q-0.921875 1.078125 -2.140625 1.640625q-1.21875 0.5625 -2.5625 0.5625q-1.078125 0 -2.15625 -0.484375q-1.078125 -0.484375 -2.15625 -1.3125l0.0625 2.71875l0 5.25l-2.625 0zm6.4375 -8.390625q0.953125 0 1.765625 -0.421875q0.8125 -0.4375 1.40625 -1.21875q0.59375 -0.78125 0.921875 -1.9375q0.34375 -1.15625 0.34375 -2.59375q0 -1.28125 -0.21875 -2.328125q-0.21875 -1.0625 -0.71875 -1.8125q-0.5 -0.75 -1.28125 -1.171875q-0.78125 -0.421875 -1.875 -0.421875q-0.984375 0 -2.0 0.546875q-1.0 0.546875 -2.15625 1.578125l0 8.15625q1.046875 0.890625 2.03125 1.265625q1.0 0.359375 1.78125 0.359375zm17.722595 1.828125l0 -22.78125l2.625 0l0 6.203125l-0.09375 3.203125q1.109375 -1.0625 2.328125 -1.8125q1.21875 -0.75 2.859375 -0.75q2.453125 0 3.59375 1.546875q1.140625 1.53125 1.140625 4.53125l0 9.859375l-2.625 0l0 -9.5q0 -2.21875 -0.703125 -3.1875q-0.703125 -0.96875 -2.25 -0.96875q-1.21875 0 -2.140625 0.609375q-0.921875 0.59375 -2.109375 1.78125l0 11.265625l-2.625 0zm40.24872 0l0 -8.125l-6.296875 -12.859375l2.84375 0l2.71875 5.90625q0.515625 1.15625 1.0 2.28125q0.484375 1.109375 1.015625 2.296875l0.140625 0q0.53125 -1.1875 1.078125 -2.296875q0.546875 -1.125 1.03125 -2.28125l2.6875 -5.90625l2.78125 0l-6.3125 12.859375l0 8.125l-2.6875 0zm24.038269 0.390625q-1.4375 0 -2.734375 -0.546875q-1.296875 -0.546875 -2.296875 -1.578125q-0.984375 -1.046875 -1.578125 -2.5625q-0.59375 -1.53125 -0.59375 -3.453125q0 -1.953125 0.59375 -3.46875q0.59375 -1.515625 1.578125 -2.5625q1.0 -1.0625 2.296875 -1.609375q1.296875 -0.546875 2.734375 -0.546875q1.4375 0 2.734375 0.546875q1.296875 0.546875 2.28125 1.609375q1.0 1.046875 1.59375 2.5625q0.59375 1.515625 0.59375 3.46875q0 1.921875 -0.59375 3.453125q-0.59375 1.515625 -1.59375 2.5625q-0.984375 1.03125 -2.28125 1.578125q-1.296875 0.546875 -2.734375 0.546875zm0 -2.1875q0.984375 0 1.8125 -0.421875q0.84375 -0.4375 1.4375 -1.21875q0.59375 -0.78125 0.90625 -1.875q0.328125 -1.09375 0.328125 -2.4375q0 -1.34375 -0.328125 -2.4375q-0.3125 -1.109375 -0.90625 -1.90625q-0.59375 -0.796875 -1.4375 -1.234375q-0.828125 -0.4375 -1.8125 -0.4375q-0.984375 0 -1.828125 0.4375q-0.828125 0.4375 -1.421875 1.234375q-0.59375 0.796875 -0.921875 1.90625q-0.3125 1.09375 -0.3125 2.4375q0 1.34375 0.3125 2.4375q0.328125 1.09375 0.921875 1.875q0.59375 0.78125 1.421875 1.21875q0.84375 0.421875 1.828125 0.421875zm22.947205 8.96875q-1.4375 0 -2.625 -0.28125q-1.1875 -0.265625 -2.03125 -0.8125q-0.84375 -0.546875 -1.3125 -1.3125q-0.46875 -0.765625 -0.46875 -1.796875q0 -0.984375 0.609375 -1.890625q0.609375 -0.890625 1.671875 -1.625l0 -0.125q-0.578125 -0.359375 -0.984375 -0.96875q-0.390625 -0.625 -0.390625 -1.5625q0 -0.984375 0.53125 -1.71875q0.546875 -0.734375 1.15625 -1.15625l0 -0.125q-0.765625 -0.640625 -1.390625 -1.703125q-0.625 -1.078125 -0.625 -2.5q0 -1.28125 0.453125 -2.296875q0.46875 -1.03125 1.265625 -1.75q0.8125 -0.71875 1.875 -1.09375q1.078125 -0.390625 2.265625 -0.390625q0.640625 0 1.1875 0.109375q0.5625 0.109375 1.015625 0.28125l5.40625 0l0 2.015625l-3.203125 0q0.546875 0.546875 0.90625 1.375q0.375 0.828125 0.375 1.8125q0 1.25 -0.453125 2.265625q-0.4375 1.0 -1.203125 1.6875q-0.765625 0.6875 -1.8125 1.078125q-1.03125 0.390625 -2.21875 0.390625q-0.578125 0 -1.1875 -0.140625q-0.609375 -0.15625 -1.15625 -0.40625q-0.40625 0.34375 -0.703125 0.78125q-0.28125 0.4375 -0.28125 1.078125q0 0.734375 0.578125 1.21875q0.578125 0.46875 2.171875 0.46875l3.0 0q2.734375 0 4.09375 0.890625q1.359375 0.875 1.359375 2.828125q0 1.078125 -0.546875 2.046875q-0.546875 0.984375 -1.578125 1.71875q-1.015625 0.734375 -2.46875 1.171875q-1.453125 0.4375 -3.28125 0.4375zm0 -13.859375q0.671875 0 1.265625 -0.25q0.59375 -0.265625 1.046875 -0.734375q0.46875 -0.484375 0.71875 -1.171875q0.265625 -0.6875 0.265625 -1.5625q0 -1.71875 -0.96875 -2.65625q-0.953125 -0.953125 -2.328125 -0.953125q-1.375 0 -2.34375 0.953125q-0.953125 0.9375 -0.953125 2.65625q0 0.875 0.25 1.5625q0.265625 0.6875 0.71875 1.171875q0.46875 0.46875 1.0625 0.734375q0.59375 0.25 1.265625 0.25zm0.375 12.03125q1.125 0 2.03125 -0.28125q0.921875 -0.265625 1.5625 -0.703125q0.640625 -0.421875 0.984375 -1.0q0.359375 -0.578125 0.359375 -1.1875q0 -1.078125 -0.8125 -1.5q-0.796875 -0.421875 -2.328125 -0.421875l-2.6875 0q-0.453125 0 -0.984375 -0.046875q-0.515625 -0.046875 -1.03125 -0.203125q-0.828125 0.609375 -1.21875 1.28125q-0.375 0.671875 -0.375 1.34375q0 1.25 1.1875 1.984375q1.203125 0.734375 3.3125 0.734375zm20.481201 -4.953125q-1.953125 0 -3.25 -1.15625q-1.296875 -1.15625 -1.296875 -3.265625q0 -2.5625 2.265625 -3.921875q2.28125 -1.359375 7.28125 -1.90625q0 -0.734375 -0.15625 -1.4375q-0.140625 -0.703125 -0.5 -1.25q-0.34375 -0.546875 -0.96875 -0.875q-0.625 -0.34375 -1.578125 -0.34375q-1.34375 0 -2.53125 0.515625q-1.1875 0.515625 -2.109375 1.15625l-1.015625 -1.828125q1.078125 -0.703125 2.640625 -1.359375q1.578125 -0.65625 3.46875 -0.65625q2.84375 0 4.125 1.75q1.28125 1.734375 1.28125 4.65625l0 9.53125l-2.171875 0l-0.234375 -1.859375l-0.09375 0q-1.125 0.9375 -2.40625 1.59375q-1.265625 0.65625 -2.75 0.65625zm0.765625 -2.125q1.125 0 2.109375 -0.515625q1.0 -0.53125 2.125 -1.5625l0 -4.3125q-1.953125 0.25 -3.28125 0.609375q-1.328125 0.34375 -2.15625 0.828125q-0.8125 0.484375 -1.1875 1.109375q-0.359375 0.625 -0.359375 1.359375q0 1.34375 0.796875 1.921875q0.8125 0.5625 1.953125 0.5625z" fill-rule="nonzero"></path><path fill="#000000" fill-opacity="0.0" d="m464.6404 168.95538l1.102356 59.62204" fill-rule="evenodd"></path><path stroke="#fff0a5" stroke-width="1.0" stroke-linejoin="round" stroke-linecap="butt" d="m464.6404 168.95538l1.102356 59.62204" fill-rule="evenodd"></path><path fill="#000000" fill-opacity="0.0" d="m639.0945 168.95538l1.102356 59.62204" fill-rule="evenodd"></path><path stroke="#fff0a5" stroke-width="1.0" stroke-linejoin="round" stroke-linecap="butt" d="m639.0945 168.95538l1.102356 59.62204" fill-rule="evenodd"></path></g></svg>

