<svg xmlns="http://www.w3.org/2000/svg" xmlns:xlink="http://www.w3.org/1999/xlink" version="1.1" x="0px" y="0px" viewBox="0 0 5 6.25" enable-background="new 0 0 5 5" xml:space="preserve"><g fill="#fafafa"><path d="M4.601,2.848C4.527,2.792,4.448,2.744,4.366,2.702C4.169,2.602,4.037,2.549,3.82,2.541C3.768,2.71,3.702,2.808,3.702,2.808   S4.051,2.863,4.203,2.94C4.101,3.077,3.981,3.2,3.812,3.282C3.237,3.557,2.667,3.397,2.676,3.41   C2.814,3.602,3.001,3.691,3.24,3.698C3.47,3.705,3.702,3.644,3.907,3.542C4.12,3.436,4.31,3.276,4.454,3.082   C4.511,3.007,4.559,2.929,4.601,2.848z"/><path d="M1.891,2.088c0.017-0.066,0.037-0.13,0.062-0.193C1.778,1.784,1.667,1.758,1.463,1.722C1.372,1.705,1.28,1.698,1.187,1.698   C1.171,1.788,1.162,1.88,1.162,1.972c0,0.193,0.036,0.385,0.104,0.562c0.018,0.046,0.038,0.092,0.06,0.135   C1.35,2.718,1.377,2.764,1.406,2.811c0.096,0.148,0.216,0.282,0.36,0.382c0.192,0.137,0.388,0.18,0.616,0.111   C2.397,3.3,2.413,3.29,2.413,3.29S2.38,3.24,2.366,3.217C2.306,3.115,2.265,3.002,2.238,2.884c-0.03-0.137-0.039-0.281-0.03-0.42   c0.004-0.048,0.009-0.099,0.016-0.146C2.235,2.267,2.248,2.216,2.26,2.169c0.044-0.18,0.132-0.324,0.239-0.455   c0.108,0.13,0.196,0.274,0.24,0.455c0.012,0.047,0.024,0.097,0.036,0.149c0.007,0.047,0.013,0.098,0.016,0.146   c0.009,0.139,0,0.283-0.03,0.42C2.736,3.002,2.694,3.115,2.634,3.217C2.619,3.24,2.587,3.29,2.587,3.29S2.602,3.3,2.616,3.304   C2.845,3.374,3.04,3.33,3.234,3.193c0.143-0.101,0.263-0.234,0.358-0.382c0.029-0.047,0.057-0.093,0.081-0.142   c0.023-0.043,0.042-0.089,0.06-0.135C3.8,2.357,3.837,2.165,3.837,1.972c0-0.092-0.008-0.184-0.024-0.274   c-0.092,0-0.184,0.007-0.275,0.024C3.333,1.758,3.221,1.784,3.048,1.895c0.024,0.063,0.046,0.127,0.061,0.193   c0.007,0.029,0.013,0.059,0.018,0.09c0.01-0.009,0.257-0.137,0.425-0.168C3.55,2.18,3.526,2.35,3.441,2.517   C3.437,2.528,3.43,2.541,3.424,2.551c-0.06,0.114-0.137,0.227-0.225,0.33C3.081,3.015,2.941,3.129,2.785,3.204   c0.077-0.061,0.137-0.137,0.18-0.228C2.989,2.928,3.007,2.877,3.021,2.82c0.015-0.05,0.023-0.102,0.03-0.154   C3.07,2.52,3.064,2.371,3.04,2.227c-0.004-0.029-0.012-0.061-0.019-0.09C3.008,2.072,2.987,2.008,2.963,1.946   C2.901,1.784,2.811,1.632,2.699,1.498C2.641,1.427,2.574,1.361,2.503,1.302C2.502,1.304,2.502,1.306,2.499,1.306   c-0.001,0-0.001-0.002-0.003-0.004c-0.071,0.06-0.138,0.125-0.195,0.196C2.189,1.632,2.1,1.784,2.036,1.946   C2.013,2.008,1.994,2.072,1.978,2.137c-0.007,0.029-0.014,0.061-0.019,0.09C1.935,2.371,1.929,2.52,1.947,2.666   C1.955,2.718,1.965,2.77,1.978,2.82c0.017,0.057,0.035,0.108,0.057,0.156c0.044,0.09,0.103,0.167,0.18,0.228   C2.058,3.129,1.919,3.015,1.8,2.881c-0.088-0.103-0.164-0.215-0.225-0.33C1.569,2.541,1.562,2.528,1.559,2.517   C1.475,2.35,1.45,2.18,1.45,2.01c0.166,0.031,0.413,0.159,0.424,0.168C1.878,2.147,1.884,2.117,1.891,2.088z"/><path d="M0.399,2.848c0.042,0.081,0.09,0.159,0.146,0.234C0.69,3.276,0.88,3.436,1.093,3.542c0.205,0.102,0.437,0.163,0.666,0.156   C1.998,3.691,2.187,3.602,2.326,3.41c0.007-0.012-0.562,0.147-1.14-0.128C1.019,3.2,0.9,3.077,0.796,2.94   c0.153-0.077,0.502-0.132,0.502-0.132S1.231,2.71,1.18,2.541C0.962,2.549,0.83,2.602,0.634,2.702   C0.551,2.744,0.475,2.792,0.399,2.848z"/></g><text x="0" y="20" fill="#000000" font-size="5px" font-weight="bold" font-family="'Helvetica Neue', Helvetica, Arial-Unicode, Arial, Sans-serif">Created by Alice Noir</text><text x="0" y="25" fill="#000000" font-size="5px" font-weight="bold" font-family="'Helvetica Neue', Helvetica, Arial-Unicode, Arial, Sans-serif">from the Noun Project</text></svg>